<svg width="24" height="24" viewBox="0 0 24 24" fill="none" xmlns="http://www.w3.org/2000/svg">
<path d="M18.6 6.62002C17.16 6.62002 15.8 7.18002 14.83 8.15002L12 10.66L10.48 12H10.49L7.8 14.39C7.16 15.03 6.31 15.38 5.4 15.38C3.53 15.38 2.01 13.87 2.01 12C2.01 10.13 3.53 8.62002 5.4 8.62002C6.31 8.62002 7.16 8.97002 7.84 9.65002L8.97 10.65L10.48 9.31002L9.22 8.20002C8.71923 7.69735 8.1238 7.2989 7.46813 7.02771C6.81246 6.75651 6.10954 6.61795 5.4 6.62002C2.42 6.62002 0 9.04002 0 12C0 14.96 2.42 17.38 5.4 17.38C6.84 17.38 8.2 16.82 9.17 15.85L12 13.35L12.01 13.36L13.52 12H13.51L16.2 9.61002C16.84 8.97002 17.69 8.62002 18.6 8.62002C20.47 8.62002 21.99 10.13 21.99 12C21.99 13.87 20.47 15.38 18.6 15.38C17.7 15.38 16.84 15.03 16.16 14.35L15.02 13.34L13.51 14.68L14.78 15.8C15.2821 16.3002 15.878 16.6963 16.5335 16.9657C17.189 17.2351 17.8913 17.3725 18.6 17.37C21.58 17.37 24 14.96 24 11.99C24 9.02002 21.58 6.62002 18.6 6.62002V6.62002Z" fill="white"/>
</svg>
