<svg width="24" height="24" viewBox="0 0 24 24" fill="none" xmlns="http://www.w3.org/2000/svg">
<path d="M17.01 14H16.21L15.94 13.73C16.9554 12.5549 17.5129 11.053 17.51 9.5C17.51 5.91 14.6 3 11.01 3C7.42 3 4.51 6 4.51 9.5H2L5.84 13.5L10 9.5H6.51C6.51 8.30653 6.98411 7.16193 7.82802 6.31802C8.67193 5.47411 9.81653 5 11.01 5C12.2035 5 13.3481 5.47411 14.192 6.31802C15.0359 7.16193 15.51 8.30653 15.51 9.5C15.509 10.2488 15.3214 10.9855 14.9642 11.6436C14.6071 12.3017 14.0916 12.8604 13.4643 13.2693C12.837 13.6782 12.1178 13.9244 11.3715 13.9856C10.6253 14.0469 9.87552 13.9212 9.19 13.62L7.71 15.1C8.87603 15.7889 10.2288 16.0949 11.5778 15.9747C12.9268 15.8545 14.2041 15.3142 15.23 14.43L15.5 14.7V15.49L20.51 20.48L22 19L17.01 14V14Z" fill="white"/>
</svg>
