<svg width="24" height="24" viewBox="0 0 24 24" fill="none" xmlns="http://www.w3.org/2000/svg">
<path d="M15.75 1.49997C13.9598 1.49997 12.2429 2.21113 10.977 3.477C9.71116 4.74287 9 6.45976 9 8.24997C8.99935 8.9134 9.09794 9.57321 9.2925 10.2075L1.5 18V22.5H6L13.7925 14.7075C14.7574 15.0035 15.7764 15.0794 16.7745 14.9296C17.7727 14.7798 18.7245 14.408 19.5599 13.8417C20.3954 13.2754 21.0932 12.5289 21.602 11.6572C22.1108 10.7856 22.4177 9.81091 22.5 8.80497C22.6514 7.20413 22.2112 5.60328 21.2625 4.30497C20.6337 3.43194 19.8053 2.72186 18.8464 2.23393C17.8875 1.74599 16.8259 1.49435 15.75 1.49997V1.49997ZM15.75 13.5C15.2417 13.498 14.7365 13.4222 14.25 13.275L13.3875 13.0125L12.75 13.65L10.365 16.035L9.3075 15L8.25 16.0575L9.285 17.0925L8.0925 18.285L7.0575 17.25L6 18.3075L7.035 19.3425L5.3775 21H3V18.6225L10.35 11.25L10.9875 10.6125L10.77 9.89997C10.3925 8.71297 10.4406 7.43151 10.9061 6.27616C11.3715 5.12081 12.2251 4.16384 13.32 3.56997C14.1087 3.15765 14.9893 2.95261 15.8791 2.97412C16.7688 2.99562 17.6385 3.24295 18.4063 3.69289C19.1742 4.14282 19.8151 4.78058 20.2688 5.54625C20.7225 6.31191 20.9741 7.18035 21 8.06997C21.052 9.13131 20.7658 10.1818 20.1825 11.07C19.7079 11.8153 19.0528 12.4288 18.278 12.8536C17.5031 13.2783 16.6336 13.5007 15.75 13.5Z" fill="white"/>
<path d="M16.5 9C17.3284 9 18 8.32843 18 7.5C18 6.67157 17.3284 6 16.5 6C15.6716 6 15 6.67157 15 7.5C15 8.32843 15.6716 9 16.5 9Z" fill="white"/>
</svg>
